<?xml version="1.0" encoding="utf-8" standalone="no"?>
<!DOCTYPE svg PUBLIC "-//W3C//DTD SVG 1.1//EN"
  "http://www.w3.org/Graphics/SVG/1.1/DTD/svg11.dtd">
<svg xmlns:xlink="http://www.w3.org/1999/xlink" width="165.372891pt" height="136.389609pt" viewBox="0 0 165.372891 136.389609" xmlns="http://www.w3.org/2000/svg" version="1.1">
 <metadata>
  <rdf:RDF xmlns:dc="http://purl.org/dc/elements/1.1/" xmlns:cc="http://creativecommons.org/ns#" xmlns:rdf="http://www.w3.org/1999/02/22-rdf-syntax-ns#">
   <cc:Work>
    <dc:type rdf:resource="http://purl.org/dc/dcmitype/StillImage"/>
    <dc:date>2025-04-29T15:43:44.974168</dc:date>
    <dc:format>image/svg+xml</dc:format>
    <dc:creator>
     <cc:Agent>
      <dc:title>Matplotlib v3.9.4, https://matplotlib.org/</dc:title>
     </cc:Agent>
    </dc:creator>
   </cc:Work>
  </rdf:RDF>
 </metadata>
 <defs>
  <style type="text/css">*{stroke-linejoin: round; stroke-linecap: butt}</style>
 </defs>
 <g id="figure_1">
  <g id="patch_1">
   <path d="M 0 136.389609 
L 165.372891 136.389609 
L 165.372891 0 
L 0 0 
z
" style="fill: #ffffff"/>
  </g>
  <g id="axes_1">
   <g id="patch_2">
    <path d="M 36.675 109.029453 
L 153.31 109.029453 
L 153.31 8.989453 
L 36.675 8.989453 
z
" style="fill: #ffffff"/>
   </g>
   <g id="matplotlib.axis_1">
    <g id="xtick_1">
     <g id="line2d_1">
      <defs>
       <path id="m86a21d80cf" d="M 0 0 
L 0 3.5 
" style="stroke: #000000; stroke-width: 0.25"/>
      </defs>
      <g>
       <use xlink:href="#m86a21d80cf" x="44.838308" y="109.029453" style="stroke: #000000; stroke-width: 0.25"/>
      </g>
     </g>
     <g id="text_1">
      <!-- 100bp -->
      <g transform="translate(37.887136 119.623203) scale(0.05 -0.05)">
       <defs>
        <path id="ArialMT-31" d="M 2384 0 
L 1822 0 
L 1822 3584 
Q 1619 3391 1289 3197 
Q 959 3003 697 2906 
L 697 3450 
Q 1169 3672 1522 3987 
Q 1875 4303 2022 4600 
L 2384 4600 
L 2384 0 
z
" transform="scale(0.015625)"/>
        <path id="ArialMT-30" d="M 266 2259 
Q 266 3072 433 3567 
Q 600 4063 929 4331 
Q 1259 4600 1759 4600 
Q 2128 4600 2406 4451 
Q 2684 4303 2865 4023 
Q 3047 3744 3150 3342 
Q 3253 2941 3253 2259 
Q 3253 1453 3087 958 
Q 2922 463 2592 192 
Q 2263 -78 1759 -78 
Q 1097 -78 719 397 
Q 266 969 266 2259 
z
M 844 2259 
Q 844 1131 1108 757 
Q 1372 384 1759 384 
Q 2147 384 2411 759 
Q 2675 1134 2675 2259 
Q 2675 3391 2411 3762 
Q 2147 4134 1753 4134 
Q 1366 4134 1134 3806 
Q 844 3388 844 2259 
z
" transform="scale(0.015625)"/>
        <path id="ArialMT-62" d="M 941 0 
L 419 0 
L 419 4581 
L 981 4581 
L 981 2947 
Q 1338 3394 1891 3394 
Q 2197 3394 2470 3270 
Q 2744 3147 2920 2923 
Q 3097 2700 3197 2384 
Q 3297 2069 3297 1709 
Q 3297 856 2875 390 
Q 2453 -75 1863 -75 
Q 1275 -75 941 416 
L 941 0 
z
M 934 1684 
Q 934 1088 1097 822 
Q 1363 388 1816 388 
Q 2184 388 2453 708 
Q 2722 1028 2722 1663 
Q 2722 2313 2464 2622 
Q 2206 2931 1841 2931 
Q 1472 2931 1203 2611 
Q 934 2291 934 1684 
z
" transform="scale(0.015625)"/>
        <path id="ArialMT-70" d="M 422 -1272 
L 422 3319 
L 934 3319 
L 934 2888 
Q 1116 3141 1344 3267 
Q 1572 3394 1897 3394 
Q 2322 3394 2647 3175 
Q 2972 2956 3137 2557 
Q 3303 2159 3303 1684 
Q 3303 1175 3120 767 
Q 2938 359 2589 142 
Q 2241 -75 1856 -75 
Q 1575 -75 1351 44 
Q 1128 163 984 344 
L 984 -1272 
L 422 -1272 
z
M 931 1641 
Q 931 1000 1190 694 
Q 1450 388 1819 388 
Q 2194 388 2461 705 
Q 2728 1022 2728 1688 
Q 2728 2322 2467 2637 
Q 2206 2953 1844 2953 
Q 1484 2953 1207 2617 
Q 931 2281 931 1641 
z
" transform="scale(0.015625)"/>
       </defs>
       <use xlink:href="#ArialMT-31"/>
       <use xlink:href="#ArialMT-30" x="55.615234"/>
       <use xlink:href="#ArialMT-30" x="111.230469"/>
       <use xlink:href="#ArialMT-62" x="166.845703"/>
       <use xlink:href="#ArialMT-70" x="222.460938"/>
      </g>
     </g>
    </g>
    <g id="xtick_2">
     <g id="line2d_2">
      <g>
       <use xlink:href="#m86a21d80cf" x="71.956231" y="109.029453" style="stroke: #000000; stroke-width: 0.25"/>
      </g>
     </g>
     <g id="text_2">
      <!-- 1kb -->
      <g transform="translate(67.925762 119.608359) scale(0.05 -0.05)">
       <defs>
        <path id="ArialMT-6b" d="M 425 0 
L 425 4581 
L 988 4581 
L 988 1969 
L 2319 3319 
L 3047 3319 
L 1778 2088 
L 3175 0 
L 2481 0 
L 1384 1697 
L 988 1316 
L 988 0 
L 425 0 
z
" transform="scale(0.015625)"/>
       </defs>
       <use xlink:href="#ArialMT-31"/>
       <use xlink:href="#ArialMT-6b" x="55.615234"/>
       <use xlink:href="#ArialMT-62" x="105.615234"/>
      </g>
     </g>
    </g>
    <g id="xtick_3">
     <g id="line2d_3">
      <g>
       <use xlink:href="#m86a21d80cf" x="99.074154" y="109.029453" style="stroke: #000000; stroke-width: 0.25"/>
      </g>
     </g>
     <g id="text_3">
      <!-- 10kb -->
      <g transform="translate(93.653451 119.608359) scale(0.05 -0.05)">
       <use xlink:href="#ArialMT-31"/>
       <use xlink:href="#ArialMT-30" x="55.615234"/>
       <use xlink:href="#ArialMT-6b" x="111.230469"/>
       <use xlink:href="#ArialMT-62" x="161.230469"/>
      </g>
     </g>
    </g>
    <g id="xtick_4">
     <g id="line2d_4">
      <g>
       <use xlink:href="#m86a21d80cf" x="126.192077" y="109.029453" style="stroke: #000000; stroke-width: 0.25"/>
      </g>
     </g>
     <g id="text_4">
      <!-- 100kb -->
      <g transform="translate(119.38114 119.608359) scale(0.05 -0.05)">
       <use xlink:href="#ArialMT-31"/>
       <use xlink:href="#ArialMT-30" x="55.615234"/>
       <use xlink:href="#ArialMT-30" x="111.230469"/>
       <use xlink:href="#ArialMT-6b" x="166.845703"/>
       <use xlink:href="#ArialMT-62" x="216.845703"/>
      </g>
     </g>
    </g>
    <g id="xtick_5">
     <g id="line2d_5">
      <g>
       <use xlink:href="#m86a21d80cf" x="153.31" y="109.029453" style="stroke: #000000; stroke-width: 0.25"/>
      </g>
     </g>
     <g id="text_5">
      <!-- 1Mb -->
      <g transform="translate(148.447109 119.608359) scale(0.05 -0.05)">
       <defs>
        <path id="ArialMT-4d" d="M 475 0 
L 475 4581 
L 1388 4581 
L 2472 1338 
Q 2622 884 2691 659 
Q 2769 909 2934 1394 
L 4031 4581 
L 4847 4581 
L 4847 0 
L 4263 0 
L 4263 3834 
L 2931 0 
L 2384 0 
L 1059 3900 
L 1059 0 
L 475 0 
z
" transform="scale(0.015625)"/>
       </defs>
       <use xlink:href="#ArialMT-31"/>
       <use xlink:href="#ArialMT-4d" x="55.615234"/>
       <use xlink:href="#ArialMT-62" x="138.916016"/>
      </g>
     </g>
    </g>
    <g id="text_6">
     <!-- SV size -->
     <g transform="translate(86.517109 128.195859) scale(0.05 -0.05)">
      <defs>
       <path id="ArialMT-53" d="M 288 1472 
L 859 1522 
Q 900 1178 1048 958 
Q 1197 738 1509 602 
Q 1822 466 2213 466 
Q 2559 466 2825 569 
Q 3091 672 3220 851 
Q 3350 1031 3350 1244 
Q 3350 1459 3225 1620 
Q 3100 1781 2813 1891 
Q 2628 1963 1997 2114 
Q 1366 2266 1113 2400 
Q 784 2572 623 2826 
Q 463 3081 463 3397 
Q 463 3744 659 4045 
Q 856 4347 1234 4503 
Q 1613 4659 2075 4659 
Q 2584 4659 2973 4495 
Q 3363 4331 3572 4012 
Q 3781 3694 3797 3291 
L 3216 3247 
Q 3169 3681 2898 3903 
Q 2628 4125 2100 4125 
Q 1550 4125 1298 3923 
Q 1047 3722 1047 3438 
Q 1047 3191 1225 3031 
Q 1400 2872 2139 2705 
Q 2878 2538 3153 2413 
Q 3553 2228 3743 1945 
Q 3934 1663 3934 1294 
Q 3934 928 3725 604 
Q 3516 281 3123 101 
Q 2731 -78 2241 -78 
Q 1619 -78 1198 103 
Q 778 284 539 648 
Q 300 1013 288 1472 
z
" transform="scale(0.015625)"/>
       <path id="ArialMT-56" d="M 1803 0 
L 28 4581 
L 684 4581 
L 1875 1253 
Q 2019 853 2116 503 
Q 2222 878 2363 1253 
L 3600 4581 
L 4219 4581 
L 2425 0 
L 1803 0 
z
" transform="scale(0.015625)"/>
       <path id="ArialMT-20" transform="scale(0.015625)"/>
       <path id="ArialMT-73" d="M 197 991 
L 753 1078 
Q 800 744 1014 566 
Q 1228 388 1613 388 
Q 2000 388 2187 545 
Q 2375 703 2375 916 
Q 2375 1106 2209 1216 
Q 2094 1291 1634 1406 
Q 1016 1563 777 1677 
Q 538 1791 414 1992 
Q 291 2194 291 2438 
Q 291 2659 392 2848 
Q 494 3038 669 3163 
Q 800 3259 1026 3326 
Q 1253 3394 1513 3394 
Q 1903 3394 2198 3281 
Q 2494 3169 2634 2976 
Q 2775 2784 2828 2463 
L 2278 2388 
Q 2241 2644 2061 2787 
Q 1881 2931 1553 2931 
Q 1166 2931 1000 2803 
Q 834 2675 834 2503 
Q 834 2394 903 2306 
Q 972 2216 1119 2156 
Q 1203 2125 1616 2013 
Q 2213 1853 2448 1751 
Q 2684 1650 2818 1456 
Q 2953 1263 2953 975 
Q 2953 694 2789 445 
Q 2625 197 2315 61 
Q 2006 -75 1616 -75 
Q 969 -75 630 194 
Q 291 463 197 991 
z
" transform="scale(0.015625)"/>
       <path id="ArialMT-69" d="M 425 3934 
L 425 4581 
L 988 4581 
L 988 3934 
L 425 3934 
z
M 425 0 
L 425 3319 
L 988 3319 
L 988 0 
L 425 0 
z
" transform="scale(0.015625)"/>
       <path id="ArialMT-7a" d="M 125 0 
L 125 456 
L 2238 2881 
Q 1878 2863 1603 2863 
L 250 2863 
L 250 3319 
L 2963 3319 
L 2963 2947 
L 1166 841 
L 819 456 
Q 1197 484 1528 484 
L 3063 484 
L 3063 0 
L 125 0 
z
" transform="scale(0.015625)"/>
       <path id="ArialMT-65" d="M 2694 1069 
L 3275 997 
Q 3138 488 2766 206 
Q 2394 -75 1816 -75 
Q 1088 -75 661 373 
Q 234 822 234 1631 
Q 234 2469 665 2931 
Q 1097 3394 1784 3394 
Q 2450 3394 2872 2941 
Q 3294 2488 3294 1666 
Q 3294 1616 3291 1516 
L 816 1516 
Q 847 969 1125 678 
Q 1403 388 1819 388 
Q 2128 388 2347 550 
Q 2566 713 2694 1069 
z
M 847 1978 
L 2700 1978 
Q 2663 2397 2488 2606 
Q 2219 2931 1791 2931 
Q 1403 2931 1139 2672 
Q 875 2413 847 1978 
z
" transform="scale(0.015625)"/>
      </defs>
      <use xlink:href="#ArialMT-53"/>
      <use xlink:href="#ArialMT-56" x="66.699219"/>
      <use xlink:href="#ArialMT-20" x="133.398438"/>
      <use xlink:href="#ArialMT-73" x="161.181641"/>
      <use xlink:href="#ArialMT-69" x="211.181641"/>
      <use xlink:href="#ArialMT-7a" x="233.398438"/>
      <use xlink:href="#ArialMT-65" x="283.398438"/>
     </g>
    </g>
   </g>
   <g id="matplotlib.axis_2">
    <g id="ytick_1">
     <g id="line2d_6">
      <defs>
       <path id="m0afc4667ae" d="M 0 0 
L -3.5 0 
" style="stroke: #000000; stroke-width: 0.25"/>
      </defs>
      <g>
       <use xlink:href="#m0afc4667ae" x="36.675" y="68.996192" style="stroke: #000000; stroke-width: 0.25"/>
      </g>
     </g>
     <g id="text_7">
      <!-- 10 -->
      <g transform="translate(24.114063 70.785646) scale(0.05 -0.05)">
       <use xlink:href="#ArialMT-31"/>
       <use xlink:href="#ArialMT-30" x="55.615234"/>
      </g>
     </g>
    </g>
    <g id="ytick_2">
     <g id="line2d_7">
      <g>
       <use xlink:href="#m0afc4667ae" x="36.675" y="48.993946" style="stroke: #000000; stroke-width: 0.25"/>
      </g>
     </g>
     <g id="text_8">
      <!-- 100 -->
      <g transform="translate(21.333594 50.783399) scale(0.05 -0.05)">
       <use xlink:href="#ArialMT-31"/>
       <use xlink:href="#ArialMT-30" x="55.615234"/>
       <use xlink:href="#ArialMT-30" x="111.230469"/>
      </g>
     </g>
    </g>
    <g id="ytick_3">
     <g id="line2d_8">
      <g>
       <use xlink:href="#m0afc4667ae" x="36.675" y="28.9917" style="stroke: #000000; stroke-width: 0.25"/>
      </g>
     </g>
     <g id="text_9">
      <!-- 1000 -->
      <g transform="translate(18.553125 30.781153) scale(0.05 -0.05)">
       <use xlink:href="#ArialMT-31"/>
       <use xlink:href="#ArialMT-30" x="55.615234"/>
       <use xlink:href="#ArialMT-30" x="111.230469"/>
       <use xlink:href="#ArialMT-30" x="166.845703"/>
      </g>
     </g>
    </g>
    <g id="ytick_4">
     <g id="line2d_9">
      <g>
       <use xlink:href="#m0afc4667ae" x="36.675" y="8.989453" style="stroke: #000000; stroke-width: 0.25"/>
      </g>
     </g>
     <g id="text_10">
      <!-- 10000 -->
      <g transform="translate(15.772656 10.778906) scale(0.05 -0.05)">
       <use xlink:href="#ArialMT-31"/>
       <use xlink:href="#ArialMT-30" x="55.615234"/>
       <use xlink:href="#ArialMT-30" x="111.230469"/>
       <use xlink:href="#ArialMT-30" x="166.845703"/>
       <use xlink:href="#ArialMT-30" x="222.460938"/>
      </g>
     </g>
    </g>
    <g id="text_11">
     <!-- Number of SVs -->
     <g transform="translate(10.778906 75.959453) rotate(-90) scale(0.05 -0.05)">
      <defs>
       <path id="ArialMT-4e" d="M 488 0 
L 488 4581 
L 1109 4581 
L 3516 984 
L 3516 4581 
L 4097 4581 
L 4097 0 
L 3475 0 
L 1069 3600 
L 1069 0 
L 488 0 
z
" transform="scale(0.015625)"/>
       <path id="ArialMT-75" d="M 2597 0 
L 2597 488 
Q 2209 -75 1544 -75 
Q 1250 -75 995 37 
Q 741 150 617 320 
Q 494 491 444 738 
Q 409 903 409 1263 
L 409 3319 
L 972 3319 
L 972 1478 
Q 972 1038 1006 884 
Q 1059 663 1231 536 
Q 1403 409 1656 409 
Q 1909 409 2131 539 
Q 2353 669 2445 892 
Q 2538 1116 2538 1541 
L 2538 3319 
L 3100 3319 
L 3100 0 
L 2597 0 
z
" transform="scale(0.015625)"/>
       <path id="ArialMT-6d" d="M 422 0 
L 422 3319 
L 925 3319 
L 925 2853 
Q 1081 3097 1340 3245 
Q 1600 3394 1931 3394 
Q 2300 3394 2536 3241 
Q 2772 3088 2869 2813 
Q 3263 3394 3894 3394 
Q 4388 3394 4653 3120 
Q 4919 2847 4919 2278 
L 4919 0 
L 4359 0 
L 4359 2091 
Q 4359 2428 4304 2576 
Q 4250 2725 4106 2815 
Q 3963 2906 3769 2906 
Q 3419 2906 3187 2673 
Q 2956 2441 2956 1928 
L 2956 0 
L 2394 0 
L 2394 2156 
Q 2394 2531 2256 2718 
Q 2119 2906 1806 2906 
Q 1569 2906 1367 2781 
Q 1166 2656 1075 2415 
Q 984 2175 984 1722 
L 984 0 
L 422 0 
z
" transform="scale(0.015625)"/>
       <path id="ArialMT-72" d="M 416 0 
L 416 3319 
L 922 3319 
L 922 2816 
Q 1116 3169 1280 3281 
Q 1444 3394 1641 3394 
Q 1925 3394 2219 3213 
L 2025 2691 
Q 1819 2813 1613 2813 
Q 1428 2813 1281 2702 
Q 1134 2591 1072 2394 
Q 978 2094 978 1738 
L 978 0 
L 416 0 
z
" transform="scale(0.015625)"/>
       <path id="ArialMT-6f" d="M 213 1659 
Q 213 2581 725 3025 
Q 1153 3394 1769 3394 
Q 2453 3394 2887 2945 
Q 3322 2497 3322 1706 
Q 3322 1066 3130 698 
Q 2938 331 2570 128 
Q 2203 -75 1769 -75 
Q 1072 -75 642 372 
Q 213 819 213 1659 
z
M 791 1659 
Q 791 1022 1069 705 
Q 1347 388 1769 388 
Q 2188 388 2466 706 
Q 2744 1025 2744 1678 
Q 2744 2294 2464 2611 
Q 2184 2928 1769 2928 
Q 1347 2928 1069 2612 
Q 791 2297 791 1659 
z
" transform="scale(0.015625)"/>
       <path id="ArialMT-66" d="M 556 0 
L 556 2881 
L 59 2881 
L 59 3319 
L 556 3319 
L 556 3672 
Q 556 4006 616 4169 
Q 697 4388 901 4523 
Q 1106 4659 1475 4659 
Q 1713 4659 2000 4603 
L 1916 4113 
Q 1741 4144 1584 4144 
Q 1328 4144 1222 4034 
Q 1116 3925 1116 3625 
L 1116 3319 
L 1763 3319 
L 1763 2881 
L 1116 2881 
L 1116 0 
L 556 0 
z
" transform="scale(0.015625)"/>
      </defs>
      <use xlink:href="#ArialMT-4e"/>
      <use xlink:href="#ArialMT-75" x="72.216797"/>
      <use xlink:href="#ArialMT-6d" x="127.832031"/>
      <use xlink:href="#ArialMT-62" x="211.132812"/>
      <use xlink:href="#ArialMT-65" x="266.748047"/>
      <use xlink:href="#ArialMT-72" x="322.363281"/>
      <use xlink:href="#ArialMT-20" x="355.664062"/>
      <use xlink:href="#ArialMT-6f" x="383.447266"/>
      <use xlink:href="#ArialMT-66" x="439.0625"/>
      <use xlink:href="#ArialMT-20" x="466.845703"/>
      <use xlink:href="#ArialMT-53" x="494.628906"/>
      <use xlink:href="#ArialMT-56" x="561.328125"/>
      <use xlink:href="#ArialMT-73" x="628.027344"/>
     </g>
    </g>
   </g>
   <g id="line2d_10">
    <path d="M 36.792449 25.94763 
L 37.259924 22.749568 
L 37.493661 21.573822 
L 37.727398 23.246967 
L 38.194873 24.373691 
L 38.428611 24.647677 
L 38.662348 23.665683 
L 39.129823 24.276394 
L 39.363561 23.589167 
L 39.597298 23.762683 
L 40.064773 24.699638 
L 40.999723 25.679517 
L 41.233461 24.81703 
L 41.467198 26.050216 
L 41.700936 25.015363 
L 41.934673 24.542941 
L 42.168411 25.812037 
L 42.402148 25.216455 
L 43.337098 27.683693 
L 43.570835 27.095079 
L 43.804573 27.676224 
L 44.03831 27.88146 
L 44.272048 27.178107 
L 44.97326 28.237774 
L 45.206998 28.562352 
L 45.674473 29.672072 
L 45.90821 29.51689 
L 46.141948 29.600344 
L 46.375685 29.89088 
L 46.609423 29.313199 
L 46.84316 29.409888 
L 47.076897 28.736332 
L 47.310635 29.070235 
L 47.544372 28.774374 
L 47.77811 28.774374 
L 48.245585 28.485525 
L 48.479322 29.415967 
L 48.71306 29.402296 
L 48.946797 30.193134 
L 49.180535 30.286739 
L 49.414272 31.548861 
L 49.881747 31.010114 
L 50.115485 31.440709 
L 50.349222 31.296051 
L 50.58296 30.156634 
L 50.816697 29.895699 
L 51.050435 29.831671 
L 51.284172 30.15829 
L 51.751647 30.199786 
L 51.985384 31.841349 
L 52.219122 32.401719 
L 52.452859 33.352297 
L 52.686597 33.458177 
L 53.154072 34.140393 
L 53.387809 33.920592 
L 53.855284 34.597419 
L 54.089022 34.333708 
L 54.322759 34.290968 
L 54.790234 34.728135 
L 55.023972 34.512267 
L 55.257709 34.474083 
L 55.491447 35.094434 
L 55.725184 35.250746 
L 55.958922 34.877937 
L 56.192659 34.903633 
L 56.426396 34.76464 
L 56.660134 35.191429 
L 57.127609 34.580873 
L 57.361346 34.03109 
L 57.828821 31.581962 
L 58.296296 28.865217 
L 58.530034 28.519739 
L 58.763771 28.386386 
L 58.997509 28.933979 
L 59.231246 30.090662 
L 60.166196 36.818493 
L 60.399934 37.814521 
L 60.633671 38.257364 
L 61.101146 38.539541 
L 61.568621 39.165608 
L 61.802358 39.063463 
L 62.503571 39.397524 
L 62.737308 39.091202 
L 62.971046 39.02202 
L 63.438521 38.535196 
L 63.672258 37.377942 
L 63.905996 37.362749 
L 64.840946 36.572489 
L 65.074683 37.0387 
L 66.009633 35.652733 
L 66.710845 35.106133 
L 66.944583 34.575364 
L 67.412058 34.672271 
L 67.879533 34.433356 
L 68.11327 34.523207 
L 68.347008 34.966769 
L 68.580745 34.99273 
L 70.216908 34.411714 
L 71.385595 34.376659 
L 71.85307 33.24533 
L 72.086807 33.012236 
L 72.78802 31.924149 
L 73.255495 32.020048 
L 73.489232 31.903881 
L 74.190445 31.95464 
L 74.65792 32.00365 
L 74.891657 32.057057 
L 75.125394 31.972986 
L 76.527819 32.269807 
L 76.995294 32.127396 
L 77.462769 32.077686 
L 77.930244 32.032366 
L 78.397719 32.077686 
L 78.631457 32.007746 
L 79.800144 32.333385 
L 80.735094 32.789717 
L 81.670044 33.074558 
L 82.371256 33.012236 
L 82.838731 32.707165 
L 83.539944 32.814412 
L 84.708631 32.864012 
L 90.552068 32.620992 
L 91.487018 32.335512 
L 91.954493 32.612201 
L 92.421968 33.076875 
L 92.655705 32.984681 
L 92.889443 33.233525 
L 93.12318 33.160694 
L 93.824392 33.71868 
L 94.291867 34.5919 
L 94.525605 34.978298 
L 94.759342 35.109061 
L 95.226817 35.655851 
L 95.694292 35.889706 
L 96.161767 36.097163 
L 96.629242 36.229386 
L 96.86298 36.216072 
L 97.330455 36.479433 
L 98.031667 36.89727 
L 98.265405 37.189908 
L 98.732879 37.294705 
L 98.966617 37.245892 
L 99.200354 37.07901 
L 99.667829 37.628635 
L 99.901567 37.83854 
L 100.602779 39.081946 
L 100.836517 39.235948 
L 101.303992 39.97769 
L 101.537729 40.354984 
L 102.005204 41.47983 
L 103.641366 43.871851 
L 103.875104 44.050298 
L 104.576316 45.13102 
L 104.810054 45.347146 
L 105.043791 45.907149 
L 105.978741 46.102137 
L 106.446216 45.856556 
L 106.679954 45.978479 
L 106.913691 46.408453 
L 107.147429 46.419211 
L 108.082378 48.271938 
L 108.316116 48.245332 
L 108.783591 48.936226 
L 109.017328 49.052052 
L 109.251066 49.008436 
L 109.952278 49.781448 
L 110.186016 49.749802 
L 110.419753 49.861072 
L 110.653491 49.655549 
L 110.887228 49.797315 
L 111.822178 49.624358 
L 112.055916 49.9253 
L 112.289653 50.022542 
L 112.757128 50.612566 
L 112.990865 51.208161 
L 113.224603 51.208161 
L 113.45834 51.416126 
L 113.692078 51.435281 
L 113.925815 51.727796 
L 114.39329 51.493001 
L 114.627028 51.767553 
L 114.860765 51.629192 
L 115.32824 52.472841 
L 115.561978 52.780762 
L 115.795715 52.803179 
L 116.26319 53.851634 
L 116.730665 53.407323 
L 117.19814 53.676136 
L 117.431877 53.455583 
L 117.665615 53.826345 
L 118.366827 53.876997 
L 118.834302 54.160991 
L 119.06804 54.134787 
L 119.301777 53.979197 
L 119.535515 54.702404 
L 120.236727 55.70813 
L 120.470465 55.521975 
L 120.704202 56.291795 
L 120.93794 56.092851 
L 121.171677 56.060132 
L 121.405415 56.191754 
L 121.872889 55.834486 
L 122.106627 55.995061 
L 122.340364 55.552725 
L 123.041577 55.400052 
L 123.742789 55.962708 
L 123.976527 55.962708 
L 124.210264 55.614554 
L 124.677739 56.529806 
L 124.911477 56.668799 
L 125.612689 58.408108 
L 126.080164 57.709496 
L 126.313901 57.6701 
L 126.781376 57.32335 
L 128.183801 59.404569 
L 128.417539 59.261768 
L 128.885014 60.052027 
L 129.118751 59.949223 
L 129.586226 59.074946 
L 129.819964 59.167855 
L 130.053701 59.028862 
L 130.287439 59.214684 
L 130.754914 60.261359 
L 130.988651 61.391113 
L 131.456126 61.63583 
L 131.689863 62.414279 
L 132.157338 62.414279 
L 132.391076 61.824001 
L 132.624813 62.14697 
L 133.092288 61.51261 
L 133.559763 62.081408 
L 133.793501 62.831328 
L 134.027238 62.620301 
L 134.260976 64.134885 
L 134.494713 63.574248 
L 134.962188 64.134885 
L 135.195926 63.970977 
L 135.429663 64.558719 
L 135.6634 64.823314 
L 135.897138 65.66919 
L 136.130875 65.377983 
L 136.364613 65.76847 
L 136.59835 65.76847 
L 136.832088 65.970499 
L 137.065825 65.571033 
L 137.299563 65.76847 
L 137.5333 65.76847 
L 138.000775 67.292569 
L 138.46825 68.572359 
L 138.701988 69.142194 
L 138.935725 70.579995 
L 139.169463 70.23929 
L 139.4032 69.44177 
L 139.636938 69.142194 
L 139.870675 69.44177 
L 140.33815 71.30432 
L 140.571887 71.30432 
L 141.039362 73.930193 
L 141.2731 73.195655 
L 141.740575 70.23929 
L 141.974312 70.93461 
L 142.20805 70.755493 
L 142.441787 70.407972 
L 143.143 73.433666 
L 143.610475 73.930193 
L 143.844212 74.732628 
L 144.07795 73.930193 
L 144.311687 75.017469 
L 144.545425 75.311967 
L 144.779162 75.311967 
L 145.012899 76.955887 
L 145.246637 76.601271 
L 145.480374 78.115856 
L 145.714112 78.115856 
L 146.181587 81.038745 
L 146.415324 80.478107 
L 146.882799 84.560965 
L 147.116537 85.476218 
L 147.350274 85.476218 
L 147.584012 84.560965 
L 148.051487 80.478107 
L 148.285224 80.478107 
L 148.518962 78.539689 
L 148.752699 77.711743 
L 148.986437 78.115856 
L 149.220174 78.985267 
L 149.453912 81.038745 
L 149.687649 79.951469 
L 150.155124 84.560965 
L 150.388861 84.560965 
L 150.622599 85.476218 
L 150.856336 82.977163 
L 151.090074 83.733019 
L 151.323811 82.977163 
L 151.791286 84.560965 
L 152.025024 81.638076 
L 152.258761 81.038745 
L 152.492499 82.281842 
L 152.726236 82.281842 
L 153.193711 83.733019 
L 153.193711 83.733019 
" clip-path="url(#pba4afcdba5)" style="fill: none; stroke: #1f77b4; stroke-opacity: 0.85; stroke-width: 0.75; stroke-linecap: square"/>
   </g>
   <g id="line2d_11">
    <path d="M 36.792449 104.563212 
L 37.259924 104.563212 
L 37.493661 92.52066 
L 37.961136 92.52066 
L 38.194873 90.582242 
L 38.428611 90.582242 
L 38.662348 88.998439 
L 38.896086 92.52066 
L 39.129823 87.659353 
L 39.363561 86.499383 
L 40.532248 86.499383 
L 40.765986 87.659353 
L 40.999723 87.659353 
L 41.233461 83.733019 
L 41.467198 84.560965 
L 41.700936 83.733019 
L 42.168411 81.038745 
L 42.402148 78.539689 
L 42.635885 78.985267 
L 42.869623 78.115856 
L 43.10336 76.601271 
L 43.337098 77.711743 
L 43.570835 78.115856 
L 43.804573 78.115856 
L 44.03831 76.260566 
L 44.272048 75.6168 
L 44.505785 76.601271 
L 44.739523 76.955887 
L 44.97326 76.260566 
L 45.206998 76.601271 
L 45.440735 78.985267 
L 45.90821 76.955887 
L 46.141948 75.932721 
L 46.375685 75.932721 
L 46.609423 76.955887 
L 46.84316 76.601271 
L 47.076897 75.932721 
L 47.310635 76.260566 
L 47.544372 74.189522 
L 48.011847 72.963991 
L 48.245585 70.407972 
L 48.479322 70.407972 
L 48.71306 68.996192 
L 48.946797 69.142194 
L 49.180535 68.300872 
L 49.881747 58.668733 
L 50.58296 54.427481 
L 50.816697 54.293214 
L 51.050435 54.563855 
L 51.284172 55.015222 
L 51.51791 54.454585 
L 51.751647 54.187275 
L 51.985384 55.102528 
L 52.219122 54.646719 
L 52.452859 54.814857 
L 52.686597 54.758449 
L 53.154072 56.359136 
L 53.387809 56.060132 
L 53.621547 56.668799 
L 53.855284 57.909203 
L 54.089022 58.072341 
L 54.322759 57.868893 
L 54.556497 57.949701 
L 54.790234 58.846931 
L 55.257709 59.074946 
L 55.491447 59.549756 
L 55.725184 60.695793 
L 56.192659 61.036498 
L 56.426396 61.760823 
L 56.893871 60.421737 
L 57.127609 60.530324 
L 57.595084 59.797262 
L 58.062559 59.121276 
L 58.296296 59.50109 
L 58.530034 58.072341 
L 58.763771 57.828769 
L 59.231246 57.709496 
L 59.698721 56.95364 
L 59.932459 57.909203 
L 60.399934 57.361201 
L 60.633671 56.845727 
L 60.867409 56.774523 
L 61.101146 56.427002 
L 61.334883 55.70813 
L 62.036096 56.060132 
L 62.269833 55.771078 
L 62.503571 55.834486 
L 62.737308 55.4608 
L 62.971046 55.70813 
L 63.204783 55.400052 
L 63.672258 55.802724 
L 64.139733 56.3254 
L 64.373471 55.930475 
L 64.607208 55.802724 
L 64.840946 55.015222 
L 65.074683 55.015222 
L 65.308421 54.509048 
L 65.542158 54.674517 
L 66.009633 54.509048 
L 66.477108 54.871634 
L 66.710845 54.928785 
L 67.17832 55.19072 
L 67.645795 55.250017 
L 67.879533 55.015222 
L 68.11327 55.073328 
L 68.347008 54.536408 
L 68.814483 53.953534 
L 69.04822 54.056643 
L 69.281958 53.725918 
L 69.515695 53.676136 
L 70.216908 54.536408 
L 70.450645 54.082613 
L 70.684382 53.876997 
L 70.91812 54.056643 
L 71.385595 53.407323 
L 71.85307 53.626638 
L 72.086807 53.601994 
L 72.320545 52.825655 
L 72.554282 52.870782 
L 73.021757 51.7875 
L 73.255495 51.847617 
L 73.489232 52.196369 
L 73.72297 52.803179 
L 73.956707 52.537911 
L 74.190445 53.007586 
L 74.65792 52.55971 
L 74.891657 52.713854 
L 75.125394 52.713854 
L 75.359132 53.05367 
L 75.592869 52.870782 
L 75.826607 53.05367 
L 76.060344 52.961745 
L 76.995294 51.948745 
L 77.696507 51.747651 
L 77.930244 51.570563 
L 78.865194 51.767553 
L 79.332669 51.435281 
L 79.566407 50.842344 
L 79.800144 50.612566 
L 80.033881 50.682622 
L 80.501356 50.08798 
L 80.968831 51.078365 
L 81.202569 51.245604 
L 81.436306 51.05998 
L 81.903781 51.435281 
L 82.137519 50.700224 
L 82.604994 50.860273 
L 83.072469 50.456976 
L 83.539944 51.152296 
L 83.773681 50.788776 
L 84.007419 50.735537 
L 84.241156 50.87824 
L 84.708631 50.59514 
L 84.942368 50.735537 
L 85.176106 51.416126 
L 85.643581 50.824451 
L 86.111056 50.735537 
L 86.578531 50.038856 
L 87.046006 50.59514 
L 87.279743 50.203697 
L 87.513481 50.270519 
L 87.747218 50.577749 
L 87.980956 50.577749 
L 88.448431 50.237044 
L 88.682168 50.525783 
L 88.915906 50.577749 
L 89.149643 50.33786 
L 89.617118 50.137385 
L 90.084593 50.474127 
L 90.785805 49.893127 
L 91.019543 50.022542 
L 91.25328 49.439524 
L 91.720755 49.008436 
L 93.356918 49.516061 
L 93.590655 49.154683 
L 94.05813 49.022951 
L 94.291867 49.288444 
L 94.525605 49.169444 
L 94.759342 49.199042 
L 95.226817 49.562308 
L 95.460555 50.00626 
L 95.694292 49.562308 
L 96.395505 49.608804 
L 96.629242 49.363656 
L 96.86298 48.850358 
L 97.330455 48.850358 
L 97.564192 48.611577 
L 97.79793 48.709105 
L 98.031667 48.528845 
L 98.265405 48.821923 
L 98.499142 49.333493 
L 99.200354 49.363656 
L 99.434092 49.702548 
L 100.602779 49.655549 
L 100.836517 49.655549 
L 101.070254 49.845089 
L 101.303992 49.624358 
L 101.771467 49.797315 
L 102.238942 49.500699 
L 102.472679 49.470058 
L 102.706417 49.973785 
L 102.940154 49.749802 
L 103.407629 50.00626 
L 103.875104 50.354777 
L 104.108841 49.973785 
L 104.342579 50.304124 
L 105.043791 50.560392 
L 105.277529 50.287305 
L 105.745004 50.153915 
L 106.212479 50.38871 
L 106.446216 50.304124 
L 106.679954 50.788776 
L 107.381166 51.245604 
L 107.848641 50.842344 
L 108.082378 50.968635 
L 108.316116 51.264386 
L 108.549853 51.05998 
L 108.783591 51.115252 
L 109.251066 51.767553 
L 109.484803 51.493001 
L 109.952278 52.009993 
L 110.186016 52.113041 
L 110.419753 52.408254 
L 110.653491 52.344144 
L 111.120966 51.747651 
L 111.354703 52.154605 
L 111.822178 52.408254 
L 112.055916 52.603473 
L 112.289653 53.57742 
L 112.990865 53.504113 
L 113.224603 53.335431 
L 113.45834 53.552916 
L 113.692078 53.52848 
L 113.925815 53.902435 
L 114.159553 53.651352 
L 114.860765 54.346672 
L 115.094503 54.213639 
L 115.32824 53.676136 
L 115.561978 53.57742 
L 115.795715 53.626638 
L 116.26319 53.52848 
L 116.496928 53.626638 
L 116.730665 54.240083 
L 117.19814 54.786607 
L 117.431877 54.536408 
L 117.665615 54.108661 
L 117.899352 54.400461 
L 118.600565 53.851634 
L 119.06804 54.758449 
L 119.301777 54.160991 
L 119.535515 54.454585 
L 120.236727 54.61901 
L 120.470465 54.871634 
L 120.704202 55.339727 
L 121.171677 55.802724 
L 121.405415 56.125693 
L 121.872889 55.220318 
L 122.106627 55.279817 
L 122.340364 55.19072 
L 122.574102 55.4608 
L 123.041577 56.393003 
L 123.509052 56.95364 
L 123.742789 56.881549 
L 123.976527 57.026334 
L 124.210264 56.529806 
L 124.444002 56.633842 
L 124.677739 57.173572 
L 124.911477 56.633842 
L 125.145214 56.599025 
L 125.378952 56.359136 
L 125.612689 56.633842 
L 126.080164 56.393003 
L 126.313901 56.95364 
L 126.781376 57.026334 
L 127.248851 57.828769 
L 127.482589 57.591839 
L 127.716326 57.749072 
L 127.950064 58.072341 
L 128.183801 58.668733 
L 128.417539 58.451006 
L 129.118751 58.846931 
L 129.352489 59.404569 
L 129.586226 59.074946 
L 129.819964 59.167855 
L 130.053701 59.028862 
L 130.287439 59.121276 
L 130.521176 59.074946 
L 130.988651 59.549756 
L 131.923601 61.036498 
L 132.157338 60.807883 
L 132.391076 60.31449 
L 132.858551 60.585131 
L 133.326026 61.271293 
L 133.793501 62.551083 
L 134.027238 62.14697 
L 134.260976 62.081408 
L 134.494713 62.14697 
L 134.962188 61.153102 
L 135.195926 61.036498 
L 135.429663 61.391113 
L 135.6634 61.451649 
L 136.130875 61.824001 
L 136.364613 61.951751 
L 137.065825 63.344626 
L 137.299563 62.620301 
L 137.767038 64.134885 
L 138.000775 63.890169 
L 138.234513 62.690075 
L 138.46825 62.902826 
L 138.701988 63.652158 
L 138.935725 63.194849 
L 139.169463 63.04761 
L 139.4032 63.04761 
L 139.636938 63.810105 
L 139.870675 62.690075 
L 140.104413 62.482411 
L 140.33815 62.551083 
L 140.571887 62.279596 
L 140.805625 62.414279 
L 141.039362 62.760415 
L 141.506837 64.646025 
L 141.974312 65.189131 
L 142.20805 65.189131 
L 142.441787 65.66919 
L 143.143 64.052545 
L 143.376737 64.301946 
L 143.610475 64.913334 
L 143.844212 64.823314 
L 144.311687 65.66919 
L 144.545425 66.717069 
L 144.779162 66.82916 
L 145.012899 65.76847 
L 145.246637 65.571033 
L 145.480374 66.606407 
L 146.181587 67.292569 
L 146.649062 69.752048 
L 146.882799 68.711352 
L 147.116537 69.595524 
L 147.350274 69.142194 
L 147.584012 69.911445 
L 147.817749 70.23929 
L 148.051487 70.23929 
L 148.285224 70.579995 
L 148.752699 70.579995 
L 148.986437 70.93461 
L 149.220174 71.890173 
L 149.453912 71.30432 
L 149.687649 71.495248 
L 149.921386 70.755493 
L 150.155124 70.93461 
L 150.388861 70.407972 
L 150.622599 69.44177 
L 151.090074 70.073821 
L 152.492499 76.601271 
L 152.726236 76.260566 
L 153.193711 79.951469 
L 153.193711 79.951469 
" clip-path="url(#pba4afcdba5)" style="fill: none; stroke: #ff7f0e; stroke-opacity: 0.85; stroke-width: 0.75; stroke-linecap: square"/>
   </g>
   <g id="line2d_12">
    <path d="M 36.792449 25.655818 
L 37.259924 22.277108 
L 37.493661 20.907236 
L 37.727398 22.481339 
L 38.194873 23.492538 
L 38.428611 23.603171 
L 38.662348 22.707327 
L 38.896086 23.412192 
L 39.129823 23.5915 
L 39.363561 22.979115 
L 39.597298 23.117161 
L 40.298511 24.85202 
L 40.532248 25.138989 
L 40.765986 25.820073 
L 40.999723 26.136292 
L 41.233461 25.637101 
L 41.467198 26.959966 
L 41.700936 25.967028 
L 41.934673 25.703282 
L 42.168411 27.083448 
L 42.402148 26.414812 
L 43.337098 28.870927 
L 43.570835 28.268359 
L 43.804573 28.822516 
L 44.03831 29.055638 
L 44.272048 28.221859 
L 44.97326 28.228487 
L 45.440735 28.580285 
L 45.674473 28.949814 
L 45.90821 28.78285 
L 46.141948 28.903829 
L 46.375685 29.262267 
L 46.609423 28.514256 
L 46.84316 28.612102 
L 47.076897 28.175607 
L 47.310635 28.768727 
L 47.544372 28.572004 
L 47.77811 28.543082 
L 48.011847 28.780024 
L 48.245585 28.522482 
L 48.479322 29.295189 
L 48.71306 29.177545 
L 48.946797 29.882855 
L 49.180535 30.015408 
L 49.414272 31.02108 
L 49.64801 31.074278 
L 49.881747 30.953676 
L 50.115485 31.431117 
L 50.349222 31.31684 
L 50.58296 30.401776 
L 51.284172 30.904818 
L 51.751647 30.729753 
L 51.985384 32.042646 
L 52.219122 32.015945 
L 52.452859 32.610005 
L 52.686597 32.54002 
L 53.154072 33.434 
L 53.387809 33.088468 
L 53.855284 33.844324 
L 54.089022 33.946164 
L 54.322759 33.731163 
L 54.790234 34.243135 
L 55.023972 34.020752 
L 55.257709 34.049212 
L 55.725184 34.688992 
L 55.958922 34.002689 
L 56.192659 34.13254 
L 56.426396 33.706215 
L 56.660134 33.545777 
L 57.361346 30.968206 
L 57.595084 28.895234 
L 58.530034 16.59349 
L 58.763771 15.580638 
L 58.997509 15.238387 
L 59.231246 15.774802 
L 59.464984 17.311306 
L 59.932459 24.104783 
L 60.633671 35.851353 
L 60.867409 37.542973 
L 61.334883 38.565654 
L 61.568621 38.715128 
L 61.802358 38.483231 
L 62.036096 38.653268 
L 62.503571 39.460106 
L 62.737308 39.591544 
L 63.204783 40.195782 
L 63.438521 40.16953 
L 63.672258 39.625947 
L 63.905996 40.044612 
L 64.139733 40.148585 
L 64.840946 41.022677 
L 65.074683 41.752284 
L 65.308421 41.664664 
L 65.542158 41.885394 
L 65.775895 41.510364 
L 66.009633 41.370788 
L 66.24337 41.608799 
L 66.477108 42.125003 
L 66.710845 41.981738 
L 66.944583 41.322761 
L 67.412058 42.204155 
L 67.645795 42.105327 
L 67.879533 41.733434 
L 68.11327 42.040061 
L 68.347008 43.067291 
L 68.580745 43.133407 
L 69.281958 43.657741 
L 69.515695 43.479423 
L 69.749433 43.564249 
L 70.450645 43.327285 
L 70.91812 44.066704 
L 71.151857 43.776039 
L 71.385595 43.847798 
L 71.85307 43.403021 
L 72.320545 43.192602 
L 72.554282 43.471753 
L 72.78802 43.229805 
L 73.489232 43.603082 
L 73.956707 43.642089 
L 74.65792 44.856964 
L 74.891657 45.029526 
L 75.125394 44.992911 
L 75.592869 45.252517 
L 76.294082 45.51042 
L 76.527819 45.786216 
L 76.761557 45.588329 
L 77.462769 45.79623 
L 77.696507 45.696609 
L 77.930244 45.82634 
L 78.397719 46.538434 
L 78.631457 46.538434 
L 78.865194 46.227581 
L 79.332669 46.906246 
L 79.566407 46.929046 
L 79.800144 46.681476 
L 80.033881 46.703693 
L 80.267619 47.242853 
L 80.968831 46.419211 
L 81.202569 46.019503 
L 81.436306 45.947837 
L 81.670044 45.261933 
L 82.371256 44.652558 
L 82.604994 44.325038 
L 83.072469 42.922144 
L 83.306206 41.074885 
L 83.539944 40.248526 
L 83.773681 39.921464 
L 84.007419 39.921464 
L 84.241156 40.070489 
L 84.474893 40.48448 
L 84.942368 43.259683 
L 85.643581 44.504507 
L 85.877318 44.635008 
L 87.046006 47.543883 
L 87.279743 48.528845 
L 87.513481 48.821923 
L 87.747218 48.695105 
L 87.980956 49.169444 
L 88.214693 49.22874 
L 88.448431 49.655549 
L 88.915906 49.27348 
L 89.149643 50.0552 
L 89.38338 50.354777 
L 89.617118 51.170878 
L 89.850855 51.023327 
L 90.31833 52.984635 
L 90.552068 52.938915 
L 91.25328 53.826345 
L 91.487018 52.625437 
L 91.720755 52.516167 
L 91.954493 52.669533 
L 92.421968 52.55971 
L 92.655705 40.312244 
L 92.889443 37.374141 
L 93.356918 36.940542 
L 93.824392 36.875714 
L 94.525605 52.55971 
L 94.759342 54.400461 
L 94.99308 55.30972 
L 95.226817 55.739547 
L 95.460555 57.06291 
L 95.92803 58.28067 
L 96.161767 57.552972 
L 96.629242 58.624749 
L 96.86298 58.494117 
L 97.096717 58.757375 
L 97.330455 58.668733 
L 97.564192 59.309108 
L 97.79793 59.167855 
L 98.031667 58.494117 
L 98.265405 58.892058 
L 98.499142 58.93742 
L 98.732879 58.408108 
L 99.200354 59.261768 
L 99.434092 60.367948 
L 99.667829 59.747194 
L 99.901567 59.697412 
L 100.135304 60.640286 
L 100.602779 60.807883 
L 100.836517 61.153102 
L 101.070254 61.887641 
L 101.303992 61.951751 
L 102.005204 61.330996 
L 102.238942 60.978778 
L 102.472679 60.978778 
L 103.173891 62.760415 
L 103.407629 62.21303 
L 103.641366 62.551083 
L 103.875104 62.620301 
L 104.108841 62.831328 
L 104.342579 62.551083 
L 104.576316 62.760415 
L 104.810054 63.574248 
L 105.043791 63.269414 
L 105.277529 63.497031 
L 105.511266 63.890169 
L 105.745004 64.646025 
L 105.978741 63.810105 
L 106.212479 63.497031 
L 106.446216 63.890169 
L 106.679954 63.970977 
L 107.147429 63.04761 
L 107.848641 65.377983 
L 108.082378 64.646025 
L 108.316116 65.004297 
L 108.549853 65.970499 
L 108.783591 66.177339 
L 109.251066 65.377983 
L 109.484803 66.389224 
L 110.186016 67.057774 
L 110.419753 68.852605 
L 110.653491 69.44177 
L 110.887228 68.711352 
L 111.120966 70.073821 
L 111.588441 70.579995 
L 111.822178 68.996192 
L 112.055916 69.595524 
L 112.289653 70.93461 
L 112.52339 70.579995 
L 112.757128 70.93461 
L 112.990865 71.890173 
L 113.224603 73.433666 
L 113.45834 72.738346 
L 113.692078 72.963991 
L 113.925815 73.930193 
L 114.627028 70.407972 
L 115.094503 70.755493 
L 115.32824 70.407972 
L 116.029453 71.495248 
L 116.496928 73.930193 
L 116.964402 72.09458 
L 117.19814 71.495248 
L 117.431877 71.690466 
L 117.665615 71.30432 
L 117.899352 70.23929 
L 118.13309 70.93461 
L 118.366827 72.518413 
L 118.600565 72.518413 
L 118.834302 73.930193 
L 119.06804 72.738346 
L 119.301777 72.963991 
L 119.535515 73.678382 
L 119.769252 73.433666 
L 120.00299 75.017469 
L 120.236727 73.930193 
L 120.704202 78.539689 
L 120.93794 77.711743 
L 121.171677 77.711743 
L 121.639152 78.539689 
L 122.106627 76.601271 
L 122.574102 78.115856 
L 122.807839 77.711743 
L 123.041577 76.601271 
L 123.275314 74.189522 
L 123.509052 75.017469 
L 123.976527 72.963991 
L 124.210264 72.963991 
L 124.677739 75.932721 
L 124.911477 75.6168 
L 125.145214 75.932721 
L 125.378952 75.311967 
L 125.612689 72.963991 
L 125.846427 73.195655 
L 126.547639 75.6168 
L 126.781376 77.711743 
L 127.015114 84.560965 
L 127.248851 82.281842 
L 127.482589 82.977163 
L 127.716326 82.977163 
L 127.950064 83.733019 
L 128.183801 83.733019 
L 128.417539 82.281842 
L 128.885014 86.499383 
L 129.118751 83.733019 
L 129.819964 88.998439 
L 130.287439 88.998439 
L 130.521176 90.582242 
L 131.222388 90.582242 
L 131.456126 95.019715 
L 131.689863 95.019715 
L 131.923601 104.563212 
L 132.157338 104.563212 
L 132.391076 95.019715 
L 132.858551 95.019715 
L 133.092288 92.52066 
L 133.326026 92.52066 
L 133.559763 88.998439 
L 133.793501 90.582242 
L 134.494713 90.582242 
L 134.728451 88.998439 
L 135.195926 95.019715 
L 135.429663 90.582242 
L 135.897138 90.582242 
L 136.130875 92.52066 
L 136.59835 92.52066 
L 136.832088 104.563212 
L 139.4032 104.563212 
L 139.636938 98.541936 
L 140.104413 98.541936 
L 140.33815 92.52066 
L 140.571887 92.52066 
L 140.805625 90.582242 
L 141.039362 92.52066 
L 141.2731 92.52066 
L 141.506837 95.019715 
L 141.740575 104.563212 
L 141.974312 104.563212 
L 141.974696 137.389609 
M 143.843828 137.389609 
L 143.844212 104.563212 
L 144.07795 104.563212 
L 144.311687 98.541936 
L 144.545425 98.541936 
L 145.012899 92.52066 
L 145.246637 95.019715 
L 145.480374 95.019715 
L 145.714112 98.541936 
L 146.181587 98.541936 
L 146.415324 104.563212 
L 146.882799 95.019715 
L 147.350274 95.019715 
L 147.584012 98.541936 
L 147.817749 98.541936 
L 148.051487 104.563212 
L 148.051871 137.389609 
L 148.051871 137.389609 
" clip-path="url(#pba4afcdba5)" style="fill: none; stroke: #2ca02c; stroke-opacity: 0.85; stroke-width: 0.75; stroke-linecap: square"/>
   </g>
   <g id="line2d_13">
    <path d="M 36.792449 98.541936 
L 37.259924 98.541936 
L 37.493661 92.52066 
L 37.727398 90.582242 
L 37.961136 90.582242 
L 38.194873 92.52066 
L 38.428611 90.582242 
L 38.662348 84.560965 
L 39.363561 82.281842 
L 39.831036 77.711743 
L 40.064773 79.454942 
L 40.298511 79.951469 
L 40.532248 79.951469 
L 40.765986 81.038745 
L 40.999723 81.038745 
L 41.233461 82.977163 
L 41.934673 82.977163 
L 42.168411 80.478107 
L 42.635885 81.638076 
L 42.869623 81.638076 
L 43.570835 85.476218 
L 44.03831 88.998439 
L 44.272048 88.998439 
L 44.505785 87.659353 
L 44.739523 85.476218 
L 44.97326 86.499383 
L 45.206998 84.560965 
L 45.440735 84.560965 
L 45.674473 82.977163 
L 45.90821 80.478107 
L 46.141948 82.281842 
L 46.375685 81.038745 
L 46.609423 80.478107 
L 46.84316 78.539689 
L 47.076897 77.711743 
L 47.310635 79.454942 
L 47.544372 77.325596 
L 48.011847 78.539689 
L 48.479322 82.977163 
L 48.71306 82.281842 
L 48.946797 86.499383 
L 49.180535 83.733019 
L 49.414272 83.733019 
L 49.64801 79.951469 
L 50.115485 79.951469 
L 50.349222 78.115856 
L 50.816697 79.454942 
L 51.050435 81.638076 
L 51.284172 81.638076 
L 51.51791 82.281842 
L 51.751647 78.985267 
L 51.985384 78.985267 
L 52.219122 79.454942 
L 52.686597 77.711743 
L 52.920334 77.711743 
L 53.154072 81.038745 
L 53.387809 79.454942 
L 54.089022 79.454942 
L 54.322759 78.115856 
L 54.556497 78.115856 
L 54.790234 79.454942 
L 55.023972 78.985267 
L 55.257709 79.951469 
L 55.491447 79.951469 
L 55.958922 81.038745 
L 56.426396 81.038745 
L 56.660134 81.638076 
L 56.893871 79.454942 
L 57.127609 78.539689 
L 57.361346 76.955887 
L 57.828821 76.260566 
L 58.062559 74.456831 
L 58.296296 73.930193 
L 58.530034 73.930193 
L 58.763771 75.311967 
L 58.997509 75.017469 
L 59.231246 73.678382 
L 59.932459 75.932721 
L 60.166196 74.732628 
L 60.399934 74.456831 
L 60.633671 76.260566 
L 60.867409 75.932721 
L 61.101146 76.260566 
L 61.334883 75.932721 
L 61.802358 75.932721 
L 62.036096 74.732628 
L 62.269833 74.456831 
L 62.503571 73.930193 
L 62.971046 75.6168 
L 63.672258 72.963991 
L 63.905996 74.456831 
L 64.139733 72.518413 
L 64.373471 71.690466 
L 64.607208 71.690466 
L 65.074683 73.678382 
L 65.308421 72.738346 
L 65.542158 74.456831 
L 65.775895 74.732628 
L 66.24337 76.601271 
L 66.477108 75.6168 
L 66.710845 75.311967 
L 67.17832 73.930193 
L 67.412058 73.930193 
L 67.645795 73.678382 
L 67.879533 74.189522 
L 68.11327 73.930193 
L 68.347008 72.738346 
L 68.814483 72.738346 
L 69.281958 70.407972 
L 69.515695 70.93461 
L 69.98317 72.963991 
L 70.216908 72.738346 
L 70.450645 74.189522 
L 70.684382 74.732628 
L 70.91812 74.732628 
L 71.151857 73.930193 
L 71.619332 73.930193 
L 71.85307 73.433666 
L 72.086807 73.433666 
L 72.320545 72.518413 
L 72.554282 72.518413 
L 73.021757 72.09458 
L 73.255495 72.518413 
L 73.72297 74.456831 
L 73.956707 75.311967 
L 74.190445 74.732628 
L 74.424182 75.6168 
L 74.65792 75.311967 
L 74.891657 74.732628 
L 75.125394 76.260566 
L 75.359132 75.311967 
L 75.592869 76.260566 
L 75.826607 75.6168 
L 76.060344 75.932721 
L 76.527819 74.456831 
L 76.761557 74.732628 
L 76.995294 75.311967 
L 77.229032 76.260566 
L 77.462769 76.601271 
L 77.696507 78.539689 
L 77.930244 77.325596 
L 78.163982 78.539689 
L 78.397719 76.955887 
L 78.631457 77.325596 
L 78.865194 77.325596 
L 79.098932 76.260566 
L 79.332669 77.711743 
L 79.566407 77.711743 
L 79.800144 79.454942 
L 80.033881 78.539689 
L 80.267619 78.539689 
L 80.501356 78.985267 
L 80.735094 78.115856 
L 80.968831 78.539689 
L 81.202569 77.711743 
L 81.436306 78.115856 
L 81.903781 80.478107 
L 82.604994 82.281842 
L 82.838731 80.478107 
L 83.072469 79.951469 
L 83.539944 78.115856 
L 84.007419 78.985267 
L 84.241156 81.038745 
L 84.474893 78.985267 
L 84.708631 79.951469 
L 84.942368 79.951469 
L 85.409843 76.955887 
L 85.643581 77.325596 
L 85.877318 79.951469 
L 86.111056 80.478107 
L 86.344793 83.733019 
L 86.578531 83.733019 
L 86.812268 85.476218 
L 87.279743 82.281842 
L 87.513481 81.638076 
L 87.747218 80.478107 
L 87.980956 81.038745 
L 88.214693 82.977163 
L 88.448431 82.977163 
L 88.682168 83.733019 
L 88.915906 82.977163 
L 89.149643 82.977163 
L 89.38338 84.560965 
L 89.617118 83.733019 
L 89.850855 85.476218 
L 90.084593 82.977163 
L 90.31833 82.977163 
L 90.552068 82.281842 
L 90.785805 82.281842 
L 91.019543 81.038745 
L 91.25328 80.478107 
L 91.487018 82.977163 
L 91.720755 82.281842 
L 91.954493 81.038745 
L 92.18823 80.478107 
L 92.421968 81.038745 
L 92.655705 80.478107 
L 92.889443 78.115856 
L 93.356918 80.478107 
L 93.824392 78.539689 
L 94.291867 81.638076 
L 94.525605 79.454942 
L 94.759342 81.038745 
L 94.99308 83.733019 
L 95.226817 84.560965 
L 95.460555 82.977163 
L 95.694292 82.281842 
L 95.92803 84.560965 
L 96.395505 79.951469 
L 96.629242 81.038745 
L 96.86298 80.478107 
L 97.096717 80.478107 
L 97.330455 79.951469 
L 97.564192 80.478107 
L 97.79793 81.638076 
L 98.031667 81.038745 
L 98.499142 83.733019 
L 98.732879 82.977163 
L 98.966617 81.038745 
L 99.200354 81.638076 
L 99.667829 78.985267 
L 99.901567 77.711743 
L 100.135304 77.325596 
L 100.369042 78.539689 
L 100.602779 77.325596 
L 101.303992 81.638076 
L 101.537729 82.281842 
L 101.771467 81.638076 
L 102.005204 82.977163 
L 102.238942 82.281842 
L 102.706417 78.539689 
L 102.940154 78.985267 
L 103.173891 78.539689 
L 103.407629 76.955887 
L 103.641366 76.601271 
L 103.875104 75.311967 
L 104.810054 78.985267 
L 105.043791 78.985267 
L 105.277529 81.638076 
L 105.511266 79.454942 
L 105.745004 78.539689 
L 105.978741 76.955887 
L 106.212479 78.539689 
L 106.446216 78.115856 
L 106.679954 76.955887 
L 106.913691 78.985267 
L 107.147429 78.539689 
L 107.381166 79.454942 
L 107.614904 77.711743 
L 108.082378 78.539689 
L 108.316116 78.539689 
L 108.549853 79.951469 
L 108.783591 78.985267 
L 109.017328 78.985267 
L 109.484803 80.478107 
L 109.718541 79.951469 
L 109.952278 78.985267 
L 110.186016 80.478107 
L 110.419753 79.951469 
L 110.887228 81.038745 
L 111.120966 80.478107 
L 111.354703 81.038745 
L 111.588441 81.038745 
L 111.822178 82.977163 
L 112.055916 81.638076 
L 112.289653 81.038745 
L 112.52339 81.038745 
L 112.757128 80.478107 
L 112.990865 79.454942 
L 113.224603 79.454942 
L 113.45834 78.539689 
L 114.627028 82.977163 
L 114.860765 84.560965 
L 115.094503 82.977163 
L 115.32824 82.977163 
L 115.561978 82.281842 
L 115.795715 82.281842 
L 116.26319 83.733019 
L 116.730665 87.659353 
L 117.431877 84.560965 
L 117.665615 85.476218 
L 117.899352 82.977163 
L 118.13309 82.281842 
L 118.366827 84.560965 
L 118.600565 85.476218 
L 118.834302 87.659353 
L 119.06804 83.733019 
L 120.00299 78.539689 
L 120.236727 77.711743 
L 120.704202 79.454942 
L 120.93794 78.115856 
L 121.171677 79.951469 
L 121.405415 80.478107 
L 121.639152 80.478107 
L 121.872889 79.951469 
L 122.106627 79.951469 
L 122.340364 81.638076 
L 123.041577 79.951469 
L 123.275314 80.478107 
L 123.509052 81.638076 
L 123.742789 84.560965 
L 123.976527 82.281842 
L 124.210264 82.281842 
L 124.444002 82.977163 
L 124.677739 81.638076 
L 124.911477 78.985267 
L 125.145214 78.115856 
L 125.378952 78.539689 
L 125.612689 78.539689 
L 125.846427 78.115856 
L 126.080164 79.454942 
L 126.313901 82.281842 
L 126.547639 82.281842 
L 127.015114 84.560965 
L 127.716326 87.659353 
L 127.950064 86.499383 
L 128.417539 88.998439 
L 129.118751 88.998439 
L 129.352489 95.019715 
L 129.586226 92.52066 
L 129.819964 92.52066 
L 130.053701 95.019715 
L 130.287439 95.019715 
L 130.521176 98.541936 
L 130.754914 98.541936 
L 130.988651 104.563212 
L 131.222388 98.541936 
L 131.456126 98.541936 
L 131.923601 87.659353 
L 132.157338 87.659353 
L 132.391076 86.499383 
L 132.624813 87.659353 
L 132.858551 87.659353 
L 133.326026 90.582242 
L 133.559763 86.499383 
L 134.027238 84.560965 
L 134.260976 85.476218 
L 134.728451 83.733019 
L 135.195926 88.998439 
L 135.6634 84.560965 
L 135.897138 86.499383 
L 136.364613 82.281842 
L 136.59835 81.638076 
L 137.065825 82.977163 
L 137.299563 81.638076 
L 137.5333 86.499383 
L 137.767038 86.499383 
L 138.234513 88.998439 
L 138.46825 84.560965 
L 138.701988 85.476218 
L 138.935725 84.560965 
L 139.169463 84.560965 
L 139.4032 82.977163 
L 139.636938 82.977163 
L 139.870675 85.476218 
L 140.104413 85.476218 
L 140.33815 84.560965 
L 140.805625 81.038745 
L 141.039362 80.478107 
L 141.2731 81.638076 
L 141.740575 81.638076 
L 142.20805 88.998439 
L 142.441787 87.659353 
L 142.675525 83.733019 
L 142.909262 83.733019 
L 143.143 85.476218 
L 143.376737 84.560965 
L 143.610475 82.977163 
L 143.844212 82.977163 
L 144.07795 85.476218 
L 144.311687 84.560965 
L 144.545425 82.977163 
L 144.779162 82.977163 
L 145.012899 83.733019 
L 145.246637 86.499383 
L 145.480374 82.977163 
L 145.714112 83.733019 
L 145.947849 85.476218 
L 146.181587 85.476218 
L 146.415324 86.499383 
L 146.649062 85.476218 
L 146.882799 87.659353 
L 147.116537 86.499383 
L 147.350274 86.499383 
L 147.584012 84.560965 
L 147.817749 85.476218 
L 148.051487 85.476218 
L 148.285224 87.659353 
L 148.518962 86.499383 
L 148.752699 84.560965 
L 148.986437 86.499383 
L 149.220174 84.560965 
L 149.453912 85.476218 
L 149.687649 84.560965 
L 150.155124 87.659353 
L 150.622599 87.659353 
L 150.856336 85.476218 
L 151.557549 88.998439 
L 151.791286 88.998439 
L 152.025024 90.582242 
L 152.258761 95.019715 
L 152.492499 92.52066 
L 152.959974 92.52066 
L 153.193711 95.019715 
L 153.193711 95.019715 
" clip-path="url(#pba4afcdba5)" style="fill: none; stroke: #d62728; stroke-opacity: 0.85; stroke-width: 0.75; stroke-linecap: square"/>
   </g>
   <g id="patch_3">
    <path d="M 36.675 109.029453 
L 36.675 8.989453 
" style="fill: none; stroke: #000000; stroke-width: 0.25; stroke-linejoin: miter; stroke-linecap: square"/>
   </g>
   <g id="patch_4">
    <path d="M 36.675 109.029453 
L 153.31 109.029453 
" style="fill: none; stroke: #000000; stroke-width: 0.25; stroke-linejoin: miter; stroke-linecap: square"/>
   </g>
   <g id="legend_1">
    <g id="line2d_14">
     <path d="M 130.502969 15.318359 
L 132.377969 15.318359 
L 134.252969 15.318359 
" style="fill: none; stroke: #1f77b4; stroke-opacity: 0.85; stroke-width: 0.75; stroke-linecap: square"/>
    </g>
    <g id="text_12">
     <!-- DEL -->
     <g transform="translate(138.252969 17.068359) scale(0.05 -0.05)">
      <defs>
       <path id="ArialMT-44" d="M 494 0 
L 494 4581 
L 2072 4581 
Q 2606 4581 2888 4516 
Q 3281 4425 3559 4188 
Q 3922 3881 4101 3404 
Q 4281 2928 4281 2316 
Q 4281 1794 4159 1391 
Q 4038 988 3847 723 
Q 3656 459 3429 307 
Q 3203 156 2883 78 
Q 2563 0 2147 0 
L 494 0 
z
M 1100 541 
L 2078 541 
Q 2531 541 2789 625 
Q 3047 709 3200 863 
Q 3416 1078 3536 1442 
Q 3656 1806 3656 2325 
Q 3656 3044 3420 3430 
Q 3184 3816 2847 3947 
Q 2603 4041 2063 4041 
L 1100 4041 
L 1100 541 
z
" transform="scale(0.015625)"/>
       <path id="ArialMT-45" d="M 506 0 
L 506 4581 
L 3819 4581 
L 3819 4041 
L 1113 4041 
L 1113 2638 
L 3647 2638 
L 3647 2100 
L 1113 2100 
L 1113 541 
L 3925 541 
L 3925 0 
L 506 0 
z
" transform="scale(0.015625)"/>
       <path id="ArialMT-4c" d="M 469 0 
L 469 4581 
L 1075 4581 
L 1075 541 
L 3331 541 
L 3331 0 
L 469 0 
z
" transform="scale(0.015625)"/>
      </defs>
      <use xlink:href="#ArialMT-44"/>
      <use xlink:href="#ArialMT-45" x="72.216797"/>
      <use xlink:href="#ArialMT-4c" x="138.916016"/>
     </g>
    </g>
    <g id="line2d_15">
     <path d="M 130.502969 20.766016 
L 132.377969 20.766016 
L 134.252969 20.766016 
" style="fill: none; stroke: #ff7f0e; stroke-opacity: 0.85; stroke-width: 0.75; stroke-linecap: square"/>
    </g>
    <g id="text_13">
     <!-- DUP -->
     <g transform="translate(138.252969 22.516016) scale(0.05 -0.05)">
      <defs>
       <path id="ArialMT-55" d="M 3500 4581 
L 4106 4581 
L 4106 1934 
Q 4106 1244 3950 837 
Q 3794 431 3386 176 
Q 2978 -78 2316 -78 
Q 1672 -78 1262 144 
Q 853 366 678 786 
Q 503 1206 503 1934 
L 503 4581 
L 1109 4581 
L 1109 1938 
Q 1109 1341 1220 1058 
Q 1331 775 1601 622 
Q 1872 469 2263 469 
Q 2931 469 3215 772 
Q 3500 1075 3500 1938 
L 3500 4581 
z
" transform="scale(0.015625)"/>
       <path id="ArialMT-50" d="M 494 0 
L 494 4581 
L 2222 4581 
Q 2678 4581 2919 4538 
Q 3256 4481 3484 4323 
Q 3713 4166 3852 3881 
Q 3991 3597 3991 3256 
Q 3991 2672 3619 2267 
Q 3247 1863 2275 1863 
L 1100 1863 
L 1100 0 
L 494 0 
z
M 1100 2403 
L 2284 2403 
Q 2872 2403 3119 2622 
Q 3366 2841 3366 3238 
Q 3366 3525 3220 3729 
Q 3075 3934 2838 4000 
Q 2684 4041 2272 4041 
L 1100 4041 
L 1100 2403 
z
" transform="scale(0.015625)"/>
      </defs>
      <use xlink:href="#ArialMT-44"/>
      <use xlink:href="#ArialMT-55" x="72.216797"/>
      <use xlink:href="#ArialMT-50" x="144.433594"/>
     </g>
    </g>
    <g id="line2d_16">
     <path d="M 130.502969 26.213672 
L 132.377969 26.213672 
L 134.252969 26.213672 
" style="fill: none; stroke: #2ca02c; stroke-opacity: 0.85; stroke-width: 0.75; stroke-linecap: square"/>
    </g>
    <g id="text_14">
     <!-- INS -->
     <g transform="translate(138.252969 27.963672) scale(0.05 -0.05)">
      <defs>
       <path id="ArialMT-49" d="M 597 0 
L 597 4581 
L 1203 4581 
L 1203 0 
L 597 0 
z
" transform="scale(0.015625)"/>
      </defs>
      <use xlink:href="#ArialMT-49"/>
      <use xlink:href="#ArialMT-4e" x="27.783203"/>
      <use xlink:href="#ArialMT-53" x="100"/>
     </g>
    </g>
    <g id="line2d_17">
     <path d="M 130.502969 31.661328 
L 132.377969 31.661328 
L 134.252969 31.661328 
" style="fill: none; stroke: #d62728; stroke-opacity: 0.85; stroke-width: 0.75; stroke-linecap: square"/>
    </g>
    <g id="text_15">
     <!-- INV -->
     <g transform="translate(138.252969 33.411328) scale(0.05 -0.05)">
      <use xlink:href="#ArialMT-49"/>
      <use xlink:href="#ArialMT-4e" x="27.783203"/>
      <use xlink:href="#ArialMT-56" x="100"/>
     </g>
    </g>
   </g>
  </g>
 </g>
 <defs>
  <clipPath id="pba4afcdba5">
   <rect x="36.675" y="8.989453" width="116.635" height="100.04"/>
  </clipPath>
 </defs>
</svg>
